<mxfile><diagram id="JADP3M5wRuzMCVo7Yq-Q" name="Page-1"><mxGraphModel dx="1400" dy="316" grid="1" gridSize="10" guides="1" tooltips="1" connect="1" arrows="1" fold="1" page="1" pageScale="1" pageWidth="850" pageHeight="1100" math="0" shadow="0"><root><mxCell id="0"/><mxCell id="1" parent="0"/><mxCell id="6" style="edgeStyle=orthogonalEdgeStyle;rounded=0;orthogonalLoop=1;jettySize=auto;html=1;entryX=0.5;entryY=0;entryDx=0;entryDy=0;" edge="1" parent="1" source="4" target="5"><mxGeometry relative="1" as="geometry"/></mxCell><mxCell id="4" value="Inicio" style="ellipse;whiteSpace=wrap;html=1;fillColor=#60a917;strokeColor=#2D7600;fontColor=#ffffff;" vertex="1" parent="1"><mxGeometry x="140" y="70" width="120" height="80" as="geometry"/></mxCell><mxCell id="8" style="edgeStyle=orthogonalEdgeStyle;rounded=0;orthogonalLoop=1;jettySize=auto;html=1;entryX=0;entryY=0.5;entryDx=0;entryDy=0;" edge="1" parent="1" source="5" target="7"><mxGeometry relative="1" as="geometry"/></mxCell><mxCell id="80" style="edgeStyle=orthogonalEdgeStyle;rounded=0;orthogonalLoop=1;jettySize=auto;html=1;" edge="1" parent="1" source="5"><mxGeometry relative="1" as="geometry"><mxPoint x="60" y="240" as="targetPoint"/></mxGeometry></mxCell><mxCell id="5" value="Fetch" style="rounded=0;whiteSpace=wrap;html=1;fillColor=#1ba1e2;strokeColor=#006EAF;fontColor=#ffffff;" vertex="1" parent="1"><mxGeometry x="140" y="210" width="120" height="60" as="geometry"/></mxCell><mxCell id="75" style="edgeStyle=orthogonalEdgeStyle;rounded=0;orthogonalLoop=1;jettySize=auto;html=1;" edge="1" parent="1" source="7"><mxGeometry relative="1" as="geometry"><mxPoint x="549" y="240" as="targetPoint"/></mxGeometry></mxCell><mxCell id="96" style="edgeStyle=orthogonalEdgeStyle;rounded=0;orthogonalLoop=1;jettySize=auto;html=1;entryX=0.5;entryY=0;entryDx=0;entryDy=0;" edge="1" parent="1" source="7" target="36"><mxGeometry relative="1" as="geometry"/></mxCell><mxCell id="7" value="Decode" style="rounded=0;whiteSpace=wrap;html=1;fillColor=#e3c800;strokeColor=#B09500;fontColor=#000000;" vertex="1" parent="1"><mxGeometry x="365" y="210" width="120" height="60" as="geometry"/></mxCell><mxCell id="35" style="edgeStyle=orthogonalEdgeStyle;rounded=0;orthogonalLoop=1;jettySize=auto;html=1;entryX=0.5;entryY=0;entryDx=0;entryDy=0;" edge="1" parent="1" source="36"><mxGeometry relative="1" as="geometry"><mxPoint x="425" y="450" as="targetPoint"/></mxGeometry></mxCell><mxCell id="41" style="edgeStyle=orthogonalEdgeStyle;rounded=0;orthogonalLoop=1;jettySize=auto;html=1;" edge="1" parent="1" source="36" target="40"><mxGeometry relative="1" as="geometry"/></mxCell><mxCell id="36" value="Se OP = 0" style="rhombus;whiteSpace=wrap;html=1;fillColor=#e3c800;strokeColor=#B09500;fontColor=#000000;" vertex="1" parent="1"><mxGeometry x="385" y="320" width="80" height="80" as="geometry"/></mxCell><mxCell id="38" value="Extraindo S1, S2, S3" style="shape=parallelogram;perimeter=parallelogramPerimeter;whiteSpace=wrap;html=1;fixedSize=1;fillColor=#f0a30a;strokeColor=#BD7000;fontColor=#000000;" vertex="1" parent="1"><mxGeometry x="690" y="400" width="150" height="60" as="geometry"/></mxCell><mxCell id="42" style="edgeStyle=orthogonalEdgeStyle;rounded=0;orthogonalLoop=1;jettySize=auto;html=1;" edge="1" parent="1" source="40" target="38"><mxGeometry relative="1" as="geometry"><Array as="points"><mxPoint x="765" y="360"/></Array></mxGeometry></mxCell><mxCell id="40" value="Tipo R&lt;br&gt;Add" style="rounded=0;whiteSpace=wrap;html=1;fillColor=#e3c800;strokeColor=#B09500;fontColor=#000000;" vertex="1" parent="1"><mxGeometry x="520" y="330" width="120" height="60" as="geometry"/></mxCell><mxCell id="43" style="edgeStyle=orthogonalEdgeStyle;rounded=0;orthogonalLoop=1;jettySize=auto;html=1;entryX=0.5;entryY=0;entryDx=0;entryDy=0;" edge="1" parent="1" source="44"><mxGeometry relative="1" as="geometry"><mxPoint x="425" y="580" as="targetPoint"/></mxGeometry></mxCell><mxCell id="49" style="edgeStyle=orthogonalEdgeStyle;rounded=0;orthogonalLoop=1;jettySize=auto;html=1;entryX=0;entryY=0.5;entryDx=0;entryDy=0;" edge="1" parent="1" source="44" target="48"><mxGeometry relative="1" as="geometry"/></mxCell><mxCell id="44" value="Se OP = 1" style="rhombus;whiteSpace=wrap;html=1;fillColor=#e3c800;strokeColor=#B09500;fontColor=#000000;" vertex="1" parent="1"><mxGeometry x="385" y="450" width="80" height="80" as="geometry"/></mxCell><mxCell id="50" style="edgeStyle=orthogonalEdgeStyle;rounded=0;orthogonalLoop=1;jettySize=auto;html=1;entryX=0.5;entryY=1;entryDx=0;entryDy=0;" edge="1" parent="1" source="48" target="38"><mxGeometry relative="1" as="geometry"/></mxCell><mxCell id="48" value="Tipo R&lt;br&gt;Sub" style="rounded=0;whiteSpace=wrap;html=1;fillColor=#e3c800;strokeColor=#B09500;fontColor=#000000;" vertex="1" parent="1"><mxGeometry x="520" y="460" width="120" height="60" as="geometry"/></mxCell><mxCell id="51" style="edgeStyle=orthogonalEdgeStyle;rounded=0;orthogonalLoop=1;jettySize=auto;html=1;entryX=0.5;entryY=0;entryDx=0;entryDy=0;" edge="1" parent="1" source="53"><mxGeometry relative="1" as="geometry"><mxPoint x="425" y="710" as="targetPoint"/></mxGeometry></mxCell><mxCell id="52" style="edgeStyle=orthogonalEdgeStyle;rounded=0;orthogonalLoop=1;jettySize=auto;html=1;" edge="1" parent="1" source="53" target="55"><mxGeometry relative="1" as="geometry"/></mxCell><mxCell id="53" value="Se OP = 2" style="rhombus;whiteSpace=wrap;html=1;fillColor=#e3c800;strokeColor=#B09500;fontColor=#000000;" vertex="1" parent="1"><mxGeometry x="385" y="580" width="80" height="80" as="geometry"/></mxCell><mxCell id="54" style="edgeStyle=orthogonalEdgeStyle;rounded=0;orthogonalLoop=1;jettySize=auto;html=1;" edge="1" parent="1" source="55"><mxGeometry relative="1" as="geometry"><mxPoint x="765" y="660" as="targetPoint"/><Array as="points"><mxPoint x="765" y="620"/></Array></mxGeometry></mxCell><mxCell id="55" value="Tipo I&lt;br&gt;Addi" style="rounded=0;whiteSpace=wrap;html=1;fillColor=#e3c800;strokeColor=#B09500;fontColor=#000000;" vertex="1" parent="1"><mxGeometry x="520" y="590" width="120" height="60" as="geometry"/></mxCell><mxCell id="56" style="edgeStyle=orthogonalEdgeStyle;rounded=0;orthogonalLoop=1;jettySize=auto;html=1;entryX=0.5;entryY=0;entryDx=0;entryDy=0;" edge="1" parent="1" source="58"><mxGeometry relative="1" as="geometry"><mxPoint x="425" y="840" as="targetPoint"/></mxGeometry></mxCell><mxCell id="57" style="edgeStyle=orthogonalEdgeStyle;rounded=0;orthogonalLoop=1;jettySize=auto;html=1;entryX=0;entryY=0.5;entryDx=0;entryDy=0;" edge="1" parent="1" source="58" target="60"><mxGeometry relative="1" as="geometry"/></mxCell><mxCell id="58" value="Se OP = 3" style="rhombus;whiteSpace=wrap;html=1;fillColor=#e3c800;strokeColor=#B09500;fontColor=#000000;" vertex="1" parent="1"><mxGeometry x="385" y="710" width="80" height="80" as="geometry"/></mxCell><mxCell id="62" style="edgeStyle=orthogonalEdgeStyle;rounded=0;orthogonalLoop=1;jettySize=auto;html=1;entryX=0.5;entryY=1;entryDx=0;entryDy=0;" edge="1" parent="1" source="60" target="61"><mxGeometry relative="1" as="geometry"><mxPoint x="770" y="750" as="targetPoint"/></mxGeometry></mxCell><mxCell id="60" value="Tipo I&lt;br&gt;Subi" style="rounded=0;whiteSpace=wrap;html=1;fillColor=#e3c800;strokeColor=#B09500;fontColor=#000000;" vertex="1" parent="1"><mxGeometry x="520" y="720" width="120" height="60" as="geometry"/></mxCell><mxCell id="61" value="Extraindo S1, S2, C" style="shape=parallelogram;perimeter=parallelogramPerimeter;whiteSpace=wrap;html=1;fixedSize=1;fillColor=#f0a30a;strokeColor=#BD7000;fontColor=#000000;" vertex="1" parent="1"><mxGeometry x="690" y="660" width="150" height="60" as="geometry"/></mxCell><mxCell id="63" style="edgeStyle=orthogonalEdgeStyle;rounded=0;orthogonalLoop=1;jettySize=auto;html=1;entryX=0.5;entryY=0;entryDx=0;entryDy=0;" edge="1" parent="1" source="65"><mxGeometry relative="1" as="geometry"><mxPoint x="425" y="970" as="targetPoint"/></mxGeometry></mxCell><mxCell id="64" style="edgeStyle=orthogonalEdgeStyle;rounded=0;orthogonalLoop=1;jettySize=auto;html=1;" edge="1" parent="1" source="65" target="67"><mxGeometry relative="1" as="geometry"/></mxCell><mxCell id="65" value="Se OP = 4" style="rhombus;whiteSpace=wrap;html=1;fillColor=#e3c800;strokeColor=#B09500;fontColor=#000000;" vertex="1" parent="1"><mxGeometry x="385" y="840" width="80" height="80" as="geometry"/></mxCell><mxCell id="66" style="edgeStyle=orthogonalEdgeStyle;rounded=0;orthogonalLoop=1;jettySize=auto;html=1;" edge="1" parent="1" source="67"><mxGeometry relative="1" as="geometry"><mxPoint x="765" y="920" as="targetPoint"/><Array as="points"><mxPoint x="765" y="880"/></Array></mxGeometry></mxCell><mxCell id="67" value="Tipo R&lt;br&gt;E" style="rounded=0;whiteSpace=wrap;html=1;fillColor=#e3c800;strokeColor=#B09500;fontColor=#000000;" vertex="1" parent="1"><mxGeometry x="520" y="850" width="120" height="60" as="geometry"/></mxCell><mxCell id="69" style="edgeStyle=orthogonalEdgeStyle;rounded=0;orthogonalLoop=1;jettySize=auto;html=1;entryX=0;entryY=0.5;entryDx=0;entryDy=0;" edge="1" parent="1" source="70" target="72"><mxGeometry relative="1" as="geometry"/></mxCell><mxCell id="97" style="edgeStyle=orthogonalEdgeStyle;rounded=0;orthogonalLoop=1;jettySize=auto;html=1;entryX=0.5;entryY=0;entryDx=0;entryDy=0;" edge="1" parent="1" source="70" target="81"><mxGeometry relative="1" as="geometry"/></mxCell><mxCell id="70" value="Se OP = 5" style="rhombus;whiteSpace=wrap;html=1;fillColor=#e3c800;strokeColor=#B09500;fontColor=#000000;" vertex="1" parent="1"><mxGeometry x="385" y="970" width="80" height="80" as="geometry"/></mxCell><mxCell id="71" style="edgeStyle=orthogonalEdgeStyle;rounded=0;orthogonalLoop=1;jettySize=auto;html=1;entryX=0.5;entryY=1;entryDx=0;entryDy=0;" edge="1" parent="1" source="72" target="73"><mxGeometry relative="1" as="geometry"><mxPoint x="770" y="1010" as="targetPoint"/></mxGeometry></mxCell><mxCell id="72" value="Tipo R&lt;br&gt;Ou" style="rounded=0;whiteSpace=wrap;html=1;fillColor=#e3c800;strokeColor=#B09500;fontColor=#000000;" vertex="1" parent="1"><mxGeometry x="520" y="980" width="120" height="60" as="geometry"/></mxCell><mxCell id="73" value="Extraindo S1, S2, S3" style="shape=parallelogram;perimeter=parallelogramPerimeter;whiteSpace=wrap;html=1;fixedSize=1;fillColor=#f0a30a;strokeColor=#BD7000;fontColor=#000000;" vertex="1" parent="1"><mxGeometry x="690" y="920" width="150" height="60" as="geometry"/></mxCell><mxCell id="77" style="edgeStyle=orthogonalEdgeStyle;rounded=0;orthogonalLoop=1;jettySize=auto;html=1;entryX=0;entryY=0.5;entryDx=0;entryDy=0;" edge="1" parent="1" source="74" target="76"><mxGeometry relative="1" as="geometry"/></mxCell><mxCell id="74" value="Execute" style="rounded=0;whiteSpace=wrap;html=1;fillColor=#1ba1e2;strokeColor=#006EAF;fontColor=#ffffff;" vertex="1" parent="1"><mxGeometry x="550" y="210" width="120" height="60" as="geometry"/></mxCell><mxCell id="76" value="Resultado&lt;br&gt;Operação" style="rounded=0;whiteSpace=wrap;html=1;fillColor=#a20025;strokeColor=#6F0000;fontColor=#ffffff;" vertex="1" parent="1"><mxGeometry x="720" y="210" width="120" height="60" as="geometry"/></mxCell><mxCell id="79" style="edgeStyle=orthogonalEdgeStyle;rounded=0;orthogonalLoop=1;jettySize=auto;html=1;entryX=0;entryY=0.5;entryDx=0;entryDy=0;" edge="1" parent="1" source="78" target="5"><mxGeometry relative="1" as="geometry"/></mxCell><mxCell id="78" value="Consulta Instrução pelo PC e o Incrementa de 1" style="rounded=0;whiteSpace=wrap;html=1;fillColor=#1ba1e2;strokeColor=#006EAF;fontColor=#ffffff;" vertex="1" parent="1"><mxGeometry x="-60" y="210" width="120" height="60" as="geometry"/></mxCell><mxCell id="101" style="edgeStyle=orthogonalEdgeStyle;rounded=0;orthogonalLoop=1;jettySize=auto;html=1;" edge="1" parent="1" source="81" target="100"><mxGeometry relative="1" as="geometry"/></mxCell><mxCell id="81" value="Se OP &amp;gt; 5" style="rhombus;whiteSpace=wrap;html=1;fillColor=#e3c800;strokeColor=#B09500;fontColor=#000000;" vertex="1" parent="1"><mxGeometry x="385" y="1100" width="80" height="80" as="geometry"/></mxCell><mxCell id="82" value="True" style="text;html=1;strokeColor=none;fillColor=none;align=center;verticalAlign=middle;whiteSpace=wrap;rounded=0;" vertex="1" parent="1"><mxGeometry x="465" y="990" width="40" height="20" as="geometry"/></mxCell><mxCell id="83" value="False" style="text;html=1;strokeColor=none;fillColor=none;align=center;verticalAlign=middle;whiteSpace=wrap;rounded=0;" vertex="1" parent="1"><mxGeometry x="380" y="940" width="40" height="20" as="geometry"/></mxCell><mxCell id="85" value="True" style="text;html=1;strokeColor=none;fillColor=none;align=center;verticalAlign=middle;whiteSpace=wrap;rounded=0;" vertex="1" parent="1"><mxGeometry x="465" y="860" width="40" height="20" as="geometry"/></mxCell><mxCell id="86" value="True" style="text;html=1;strokeColor=none;fillColor=none;align=center;verticalAlign=middle;whiteSpace=wrap;rounded=0;" vertex="1" parent="1"><mxGeometry x="465" y="730" width="40" height="20" as="geometry"/></mxCell><mxCell id="87" value="True" style="text;html=1;strokeColor=none;fillColor=none;align=center;verticalAlign=middle;whiteSpace=wrap;rounded=0;" vertex="1" parent="1"><mxGeometry x="465" y="600" width="40" height="20" as="geometry"/></mxCell><mxCell id="88" value="True" style="text;html=1;strokeColor=none;fillColor=none;align=center;verticalAlign=middle;whiteSpace=wrap;rounded=0;" vertex="1" parent="1"><mxGeometry x="465" y="470" width="40" height="20" as="geometry"/></mxCell><mxCell id="90" value="True" style="text;html=1;strokeColor=none;fillColor=none;align=center;verticalAlign=middle;whiteSpace=wrap;rounded=0;" vertex="1" parent="1"><mxGeometry x="465" y="340" width="40" height="20" as="geometry"/></mxCell><mxCell id="91" value="False" style="text;html=1;strokeColor=none;fillColor=none;align=center;verticalAlign=middle;whiteSpace=wrap;rounded=0;" vertex="1" parent="1"><mxGeometry x="385" y="810" width="40" height="20" as="geometry"/></mxCell><mxCell id="92" value="False" style="text;html=1;strokeColor=none;fillColor=none;align=center;verticalAlign=middle;whiteSpace=wrap;rounded=0;" vertex="1" parent="1"><mxGeometry x="385" y="680" width="40" height="20" as="geometry"/></mxCell><mxCell id="93" value="False" style="text;html=1;strokeColor=none;fillColor=none;align=center;verticalAlign=middle;whiteSpace=wrap;rounded=0;" vertex="1" parent="1"><mxGeometry x="385" y="550" width="40" height="20" as="geometry"/></mxCell><mxCell id="94" value="False" style="text;html=1;strokeColor=none;fillColor=none;align=center;verticalAlign=middle;whiteSpace=wrap;rounded=0;" vertex="1" parent="1"><mxGeometry x="380" y="420" width="40" height="20" as="geometry"/></mxCell><mxCell id="98" value="False" style="text;html=1;strokeColor=none;fillColor=none;align=center;verticalAlign=middle;whiteSpace=wrap;rounded=0;" vertex="1" parent="1"><mxGeometry x="385" y="1060" width="40" height="20" as="geometry"/></mxCell><mxCell id="99" value="True" style="text;html=1;strokeColor=none;fillColor=none;align=center;verticalAlign=middle;whiteSpace=wrap;rounded=0;" vertex="1" parent="1"><mxGeometry x="465" y="1120" width="40" height="20" as="geometry"/></mxCell><mxCell id="100" value="Return 0" style="shape=parallelogram;perimeter=parallelogramPerimeter;whiteSpace=wrap;html=1;fixedSize=1;fillColor=#f0a30a;strokeColor=#BD7000;fontColor=#000000;" vertex="1" parent="1"><mxGeometry x="520" y="1110" width="150" height="60" as="geometry"/></mxCell></root></mxGraphModel></diagram></mxfile>